Patient4_TMGait_0pt6_02_left_23_EMG.mot
version=1
nRows=23
nColumns=33
inDegrees=no
endheader
time	1LAddLong	2LGlutMax	3LGlutMed	4LIliopsoas	5LSemiMemb	6LBicFemLong	7LRecFem	8LVastMed	9LVastLat	10LGasMed	11LTibAnt	12lTibPost	13LPeroneusLong	14LSol	15LExtDigLong	16LFlexDigLong	17RAddLong	18RGlutMax	19RGlutMed	20RIliopsoas	21RSemiMemb	22RBicFemLong	23RRecFem	24RVastMed	25RVastLat	26RGasMed	27RTibAnt	28RTibPost	29RPeroneusLong	30RSol	31RExtDigLong	32RFlexDigLong
28.99	0.005951	-0.043335	-0.46692	-0.013123	-0.007477	-0.16251	-0.24719	0.003662	-0.013885	0.12466	-0.018005	0.016174	0.15015	0.06012	-0.00473	-0.001984	-0.031281	0.26794	-0.013275	0.033112	0.19119	0.28107	-0.22858	0.42084	-0.079193	-0.007629	-0.002289	-0.014191	0.016937	-0.034485	-0.007935	0.009308
28.991	-0.002594	-0.010071	-0.46997	0.01236	0.012207	-0.11993	-0.25299	0.003815	-0.018616	0.024414	-0.004425	0.010376	0.10498	-0.027008	-0.018768	-0.014801	0.011139	0.048676	0.17624	0.001526	0.05127	0.35339	-0.1944	0.3685	-0.34225	-0.00351	0.00885	-0.005035	0.006104	-0.028992	-0.00885	0.007935
28.992	0.00061	0.039978	-0.47348	0.002594	0.033569	0.036163	-0.22888	0.005035	-0.02533	0.12268	-0.005341	0.01297	0.0737	-0.16678	-0.035858	-0.012665	0.076599	-0.092468	0.19073	-0.020752	0.029297	0.12177	-0.016022	0.12299	-0.60593	-0.005951	-0.001373	-0.006866	0.002594	-0.042267	-0.001373	0.006714
28.993	-0.01236	0.006409	-0.45273	0.003052	0.068817	0.10956	-0.23193	0.007782	-0.030212	0.025024	0.002899	0.015106	0.026245	-0.092468	-0.023193	-0.005951	0.11627	-0.17349	-0.005035	-0.00946	0.25574	-0.050964	0.018768	-0.003967	-0.54047	-0.014496	0.014038	-0.007324	-0.017853	-0.028992	-0.001831	0.006561
28.994	0.000305	0.023651	-0.43808	-0.00061	0.042419	0.11078	-0.25681	0.002899	-0.016937	-0.16907	0.012054	-0.001373	-0.023346	0.15045	-0.016785	-0.007477	0.09613	-0.10101	-0.21912	0.022736	0.50995	0.060883	0.027313	-0.047455	-0.42816	-0.003357	0.011292	-0.011749	-0.035706	-0.032806	-0.003052	-0.002136
28.995	-0.004578	0.056763	-0.42938	0.00885	0.02182	0.019531	-0.27512	0.010376	-0.019989	-0.43274	0.013733	0.002289	-0.045013	0.34347	-0.028229	0.001068	0.057678	-0.17059	-0.42816	0.004425	0.2388	0.14206	0.03006	-0.12039	-0.32516	-0.005341	0.019989	-0.008698	-0.020752	-0.027466	-0.003204	0.00412
28.996	0.002899	0.10788	-0.40436	0.022278	0.011902	-0.053864	-0.28198	-0.001678	-0.009003	-0.32333	0.006714	-0.003967	-0.066376	0.4567	0.011139	0.016022	0.041199	-0.23529	-0.40863	-0.081024	0.19867	0.21637	0.024872	-0.10712	-0.1683	-0.002136	0.013275	-0.007629	-0.018616	-0.022278	-0.003052	0.002289
28.997	0.016632	0.11673	-0.36774	0.002594	-0.001984	-0.13046	-0.28976	-0.001984	-0.005341	-0.081024	0.007629	0.006409	-0.065308	0.37323	0.049133	0.000916	0.038452	-0.23163	-0.34698	-0.16083	0.14191	0.40054	0.051422	-0.22354	-0.092163	-0.005798	0.009918	-0.010376	-0.010376	-0.009766	-0.004425	0.006104
28.998	0.014648	0.10361	-0.34119	0.007172	-0.005341	-0.17563	-0.27145	0.000153	-0.005493	0.20355	-0.003204	0.000458	-0.042419	0.23743	0.095978	0.00351	0.005951	-0.25559	-0.086517	-0.077667	-0.039673	0.58563	0.074005	-0.042877	-0.11475	-0.006714	0.009918	-0.002747	0.046539	-0.011292	-0.003662	0.004272
28.999	-0.007172	0.10071	-0.32013	0.003815	0.03479	-0.010681	-0.26138	0.012665	-0.031891	0.025024	-0.002136	-0.004578	0.002289	0.21774	0.013428	-0.003662	-0.084839	-0.29739	-0.20157	0.031433	0.034027	0.57663	0.032043	0.50827	-0.12543	-0.006104	0.027924	-0.008087	0.031128	-0.01709	-0.00351	0.006104
29	-0.007477	0.12878	-0.27115	-0.003204	0.055847	0.02243	-0.28442	0.007019	-0.02243	0.3537	-0.001526	-0.002899	0.015259	0.13763	-0.013885	-0.00061	-0.053101	-0.27268	-0.12421	0.061798	0.56671	0.48035	-0.019226	0.44434	0.16602	-0.003967	0.052338	-0.006256	-0.05127	-0.016022	-0.004425	0.006256
29.001	0.007477	0.10773	-0.23804	-0.000153	0.074158	0.001221	-0.32074	0.006104	-0.004883	0.81528	-0.007477	0.00824	0.045013	0.046387	-0.014648	0.007629	-0.028992	-0.26413	-0.33127	-0.00351	0.80414	0.25131	-0.10757	0.39932	0.5423	-0.003967	0.041656	-0.010529	-0.012817	-0.02533	-0.002899	0.007019
29.002	-0.011139	0.099792	-0.20493	0.01709	0.05249	0.091248	-0.30319	0.004425	-0.002594	0.3331	-0.005341	0.008698	0.011597	-0.089417	-0.034027	-0.70648	0.004272	-0.30228	-0.50034	-0.039215	0.44617	-0.1178	-0.2771	0.098572	0.79804	0.001678	-0.016174	-0.007477	0.032196	-0.02121	-0.003662	0.013885
29.003	-0.002441	0.058746	-0.15732	0.001831	0.003967	0.19073	-0.28641	0.006409	0.006256	0.24994	0.003662	0.000458	-0.059662	-0.27268	-0.02533	0.12802	0.016479	-0.36209	-0.57892	-0.002899	0.14221	-0.49972	-0.31097	-0.27374	1.0028	-0.000916	-0.010986	-0.009766	-0.036469	-0.00412	-0.002441	0.010834
29.004	0.001068	0.07309	-0.11826	0.024109	-0.075226	0.28244	-0.29511	0.008698	0	0.48675	0.009918	-0.010071	-0.12451	-0.43259	-0.03067	0.11917	0.011597	-0.2626	-0.46524	0.071106	0.01236	-0.68207	-0.24872	-0.51361	0.53085	-0.004883	-0.011749	0.00061	0.2829	-0.00061	-0.005798	0.008087
29.005	0.002441	0.11795	-0.084381	0.011139	-0.062714	0.20309	-0.30701	0.004883	0.007019	-0.15015	0.003662	-0.010223	-0.14389	-0.27374	-0.009308	-0.007782	0.042114	-0.19821	-0.28763	0.088501	0.023956	-0.90454	-0.26108	-0.63553	-0.00473	-0.00061	0.03891	-0.011749	-0.25574	-0.046997	-0.000458	0.001678
29.006	0.002136	0.080109	-0.052185	0.009766	-0.024414	0.16998	-0.31967	0.003052	0.00885	-0.59341	0.00412	0.009766	-0.087585	-0.026703	0.010529	-0.32532	0.10712	-0.27969	-0.22232	0.035248	0.16708	-1.1034	-0.40161	-0.63446	-0.36652	-0.000458	0.020142	-0.004425	-0.44525	-0.072632	-0.001373	0.003204
29.007	0.004578	0.042572	-0.011292	0.004578	-0.014343	0.079956	-0.31433	0.008087	0.013885	-0.1091	0.014191	0.034943	-0.0354	0.022125	0.000916	0.15274	0.1268	-0.16007	-0.57388	0.012512	0.22614	-1.0144	-0.13016	-0.63675	-0.69534	-0.00473	-0.001831	-0.007477	-0.21057	-0.008545	-0.00412	0.006409
29.008	0.003357	0.017853	0.022583	-0.012665	-0.008087	0.014954	-0.31891	0.005493	0.015564	0.36102	0.006256	0.04776	0.009308	0.15778	-0.007629	0.52017	0.059357	0.02533	-0.75546	-0.097656	0.22034	-0.79483	0.097809	-0.271	-0.83313	-0.001678	0.038147	-0.008698	0.06958	0.014801	-0.005493	0.01297
29.009	0.011444	0.055695	0.049286	0.017548	-0.005798	-0.051575	-0.31494	0.002747	0.029602	0.7663	0.000305	0.003204	0.10147	0.1088	0.006866	0.085754	0.04364	0.15289	-0.13229	-0.14099	0.56213	-0.54474	0.15091	-0.056915	-0.66528	-0.00412	0.062256	-0.007629	0.064697	-0.04425	0	0.01358
29.01	0.007019	0.056763	0.081787	0.0177	0.036621	-0.075226	-0.31845	0.003052	0.027008	0.55832	-0.01297	0.040894	0.11429	-0.15228	0.011597	0.07431	0.032501	0.19104	-0.02655	-0.13718	0.39963	-0.41702	0.31937	-0.13443	-0.4274	-0.005188	0.041656	-0.001984	-0.018158	-0.05249	-0.005188	-0.001831
29.011	0.001831	-0.016174	0.11948	0.010071	0.011749	0.018311	-0.27527	0.011292	0.010986	-0.32394	-0.013275	-0.010681	0.13855	-0.12802	-0.007782	-0.021667	0.019073	0.1416	0.24658	-0.12665	0.059814	-0.35782	0.43366	-0.052185	-0.17166	-0.007935	-0.034485	-0.007172	-0.014801	-0.038605	-0.005798	-0.000458
29.012	-0.005646	-0.024567	0.14282	0.00946	0.004425	0.012665	-0.26306	0.009155	0.00473	-0.77606	-0.007629	0.009003	0.093994	-0.043945	-0.028992	-0.17975	0.056	0.11231	0.82703	-0.054779	-0.069275	-0.32867	0.25772	-0.12589	0.25726	-0.008698	-0.037231	-0.010834	-0.1329	-0.020294	-0.003662	0.005188
